<svg version="1.1" id="Layer_1" xmlns="http://www.w3.org/2000/svg" xmlns:xlink="http://www.w3.org/1999/xlink" x="0px" y="0px"
	 viewBox="0 0 300 300" style="enable-background:new 0 0 300 300;" xml:space="preserve">
<style type="text/css">
	.st0{fill-rule:evenodd;clip-rule:evenodd;fill:#FFDB00;}
	.st1{clip-path:url(#SVGID_2_);fill-rule:evenodd;clip-rule:evenodd;fill:#FEE0C6;}
	.st2{clip-path:url(#SVGID_2_);}
	.st3{clip-path:url(#SVGID_2_);fill-rule:evenodd;clip-rule:evenodd;fill:#EF3B37;}
	.st4{fill-rule:evenodd;clip-rule:evenodd;fill:#FDBA12;}
	.st5{clip-path:url(#SVGID_4_);fill-rule:evenodd;clip-rule:evenodd;fill:#FEE0C6;}
	.st6{clip-path:url(#SVGID_4_);}
	.st7{clip-path:url(#SVGID_4_);fill-rule:evenodd;clip-rule:evenodd;fill:#EF3B37;}
	.st8{clip-path:url(#SVGID_6_);fill-rule:evenodd;clip-rule:evenodd;fill:#FEE0C6;}
	.st9{clip-path:url(#SVGID_6_);}
	.st10{clip-path:url(#SVGID_8_);fill-rule:evenodd;clip-rule:evenodd;fill:#FEE0C6;}
	.st11{clip-path:url(#SVGID_8_);}
	.st12{clip-path:url(#SVGID_8_);fill-rule:evenodd;clip-rule:evenodd;fill:#EF3B37;}
	.st13{fill-rule:evenodd;clip-rule:evenodd;fill:#EF3B37;}
	.st14{fill:#EF3B37;}
	.st15{fill-rule:evenodd;clip-rule:evenodd;fill:#FEE0C6;}
	.st16{clip-path:url(#SVGID_10_);fill-rule:evenodd;clip-rule:evenodd;fill:#FFDB00;}
	.st17{clip-path:url(#SVGID_12_);fill-rule:evenodd;clip-rule:evenodd;fill:#FDBA12;}
	.st18{clip-path:url(#SVGID_12_);}
	.st19{clip-path:url(#SVGID_14_);fill-rule:evenodd;clip-rule:evenodd;fill:#FEE0C6;}
	.st20{clip-path:url(#SVGID_16_);}
	.st21{clip-path:url(#SVGID_18_);fill-rule:evenodd;clip-rule:evenodd;fill:#EF3B37;}
	.st22{clip-path:url(#SVGID_18_);}
	.st23{clip-path:url(#SVGID_18_);fill-rule:evenodd;clip-rule:evenodd;fill:#FFDB00;}
	.st24{fill-rule:evenodd;clip-rule:evenodd;fill:#81051E;}
	.st25{fill-rule:evenodd;clip-rule:evenodd;fill:#F59EC4;}
	.st26{clip-path:url(#SVGID_20_);fill-rule:evenodd;clip-rule:evenodd;fill:#1F59A9;}
	.st27{clip-path:url(#SVGID_22_);fill-rule:evenodd;clip-rule:evenodd;fill:#EF3B37;}
	.st28{clip-path:url(#SVGID_22_);}
	.st29{clip-path:url(#SVGID_24_);}
	.st30{fill-rule:evenodd;clip-rule:evenodd;fill:#FBD339;}
</style>
<g>
	<g>
		<path class="st0" d="M156.67,106.36c0,0-0.19-29.36-1.11-32.73c-0.93-3.37-0.93-6.75-4.63-8.93c-3.71-2.18-7.78-3.77-8.34-8.33
			c-0.31-2.56-0.03-6.39,3.89-8.53c3.81-2.08,7.6-1.19,10.93,0.6c3.33,1.78,6.86,5.55,7.22,9.72c0.37,4.17,0,49.99,0,49.99
			L156.67,106.36z"/>
	</g>
	<g>
		<defs>
			<path id="SVGID_1_" d="M146.48,47.84c-3.92,2.14-4.2,5.97-3.89,8.53c0.55,4.56,4.63,6.15,8.34,8.33c3.7,2.18,3.7,5.55,4.63,8.93
				c0.93,3.37,1.11,32.73,1.11,32.73l7.97,1.79c0,0,0.37-45.82,0-49.99c-0.37-4.16-3.89-7.93-7.23-9.72c-1.97-1.06-4.1-1.8-6.3-1.8
				C149.59,46.63,148.04,46.99,146.48,47.84"/>
		</defs>
		<clipPath id="SVGID_2_">
			<use xlink:href="#SVGID_1_"  style="overflow:visible;"/>
		</clipPath>
		<path class="st1" d="M138.95,53.01c0-5.51,4.52-9.98,10.1-9.98c5.58,0,10.1,4.47,10.1,9.98c0,5.51-4.52,9.98-10.1,9.98
			C143.47,62.98,138.95,58.52,138.95,53.01"/>
		<path class="st2" d="M149.05,63.59c-5.9,0-10.71-4.75-10.71-10.58s4.8-10.58,10.71-10.58s10.71,4.75,10.71,10.58
			S154.96,63.59,149.05,63.59z M149.05,43.64c-5.24,0-9.49,4.2-9.49,9.37s4.26,9.37,9.49,9.37s9.49-4.2,9.49-9.37
			S154.29,43.64,149.05,43.64z"/>
		<path class="st3" d="M140.79,53.01c0-3.55,3.32-6.43,7.42-6.43c4.1,0,7.42,2.88,7.42,6.43c0,3.55-3.32,6.43-7.42,6.43
			C144.12,59.44,140.79,56.56,140.79,53.01"/>
		<path class="st2" d="M148.21,59.99c-4.4,0-7.97-3.13-7.97-6.98s3.57-6.98,7.97-6.98c4.39,0,7.97,3.13,7.97,6.98
			S152.61,59.99,148.21,59.99z M148.21,47.13c-3.79,0-6.87,2.64-6.87,5.88c0,3.24,3.08,5.88,6.87,5.88c3.79,0,6.87-2.64,6.87-5.88
			C155.08,49.77,152,47.13,148.21,47.13z"/>
	</g>
	<g>
		<path d="M165.27,108.94l-9.24-2.07l0-0.51c-0.06-10.13-0.37-29.96-1.09-32.56c-0.18-0.65-0.32-1.3-0.47-1.94
			c-0.6-2.67-1.11-4.98-3.87-6.6c-0.51-0.3-1.03-0.59-1.55-0.88c-3.24-1.81-6.58-3.68-7.1-7.93c-0.36-2.94,0.08-6.91,4.22-9.17
			c3.48-1.9,7.25-1.7,11.54,0.59c3.48,1.86,7.16,5.74,7.56,10.23c0.37,4.15,0.02,48.18,0,50.05L165.27,108.94z M157.31,105.84
			l6.69,1.5c0.05-6.11,0.33-45.35,0-49.13c-0.35-3.98-3.82-7.57-6.89-9.21c-3.88-2.08-7.25-2.27-10.32-0.6
			c-3.5,1.92-3.87,5.35-3.56,7.89c0.44,3.6,3.23,5.16,6.45,6.96c0.52,0.29,1.05,0.59,1.57,0.89c3.24,1.91,3.87,4.71,4.47,7.43
			c0.14,0.62,0.28,1.25,0.45,1.88C157.06,76.66,157.28,101.79,157.31,105.84z"/>
		<path class="st4" d="M164.82,108.94c0,0,0.37-55.15,0-57.13c-0.37-1.98-2.59-7.14-2.41-10.12c0.19-2.98,1.85-4.76,7.23-4.37
			c5.37,0.4,8.15,1.59,9.08,3.57c0.93,1.98,1.11,5.55-2.59,9.52c-3.7,3.97-4.45,4.36-5,6.55c-0.56,2.18-0.37,52.57-0.37,52.57
			L164.82,108.94z"/>
	</g>
	<g>
		<defs>
			<path id="SVGID_3_" d="M162.41,41.69c-0.18,2.97,2.04,8.13,2.41,10.12c0.37,1.98,0,57.13,0,57.13l5.93,0.59
				c0,0-0.18-50.39,0.37-52.57c0.56-2.18,1.3-2.58,5-6.55c3.7-3.97,3.52-7.54,2.59-9.52c-0.93-1.98-3.71-3.17-9.08-3.57
				c-0.5-0.04-0.97-0.05-1.4-0.05C163.97,37.27,162.58,38.99,162.41,41.69"/>
		</defs>
		<clipPath id="SVGID_4_">
			<use xlink:href="#SVGID_3_"  style="overflow:visible;"/>
		</clipPath>
		<path class="st5" d="M167.23,44.27c0-4.71,4.4-8.53,9.82-8.53c5.42,0,9.82,3.82,9.82,8.53c0,4.71-4.4,8.53-9.82,8.53
			C171.63,52.8,167.23,48.98,167.23,44.27"/>
		<path class="st6" d="M177.05,53.44c-5.77,0-10.46-4.11-10.46-9.17c0-5.06,4.69-9.17,10.46-9.17c5.77,0,10.46,4.12,10.46,9.17
			C187.51,49.32,182.82,53.44,177.05,53.44z M177.05,36.38c-5.06,0-9.18,3.54-9.18,7.89c0,4.35,4.12,7.89,9.18,7.89
			c5.06,0,9.18-3.54,9.18-7.89C186.23,39.92,182.11,36.38,177.05,36.38z"/>
		<path class="st7" d="M171.25,43.48c0-3.89,4.31-7.04,9.62-7.04c5.31,0,9.62,3.15,9.62,7.04c0,3.89-4.31,7.04-9.62,7.04
			C175.56,50.52,171.25,47.37,171.25,43.48"/>
		<path class="st6" d="M180.87,51.1c-5.63,0-10.21-3.42-10.21-7.62s4.58-7.62,10.21-7.62s10.2,3.42,10.2,7.62
			S186.5,51.1,180.87,51.1z M180.87,37.02c-4.99,0-9.04,2.9-9.04,6.46c0,3.56,4.06,6.46,9.04,6.46c4.99,0,9.04-2.9,9.04-6.46
			C189.91,39.92,185.86,37.02,180.87,37.02z"/>
	</g>
	<g>
		<path d="M171.4,110.24l-7.22-0.72l0-0.58c0.15-22.12,0.27-55.55,0.01-57.01c-0.11-0.61-0.43-1.58-0.79-2.7
			c-0.78-2.43-1.76-5.45-1.63-7.58c0.1-1.62,0.61-2.81,1.56-3.64c1.28-1.11,3.36-1.55,6.36-1.33c5.49,0.41,8.55,1.66,9.61,3.94
			c0.53,1.15,1.92,5.28-2.71,10.23c-0.72,0.77-1.32,1.4-1.84,1.94c-2.11,2.2-2.61,2.73-3.01,4.33c-0.39,1.58-0.42,32.21-0.35,52.41
			L171.4,110.24z M165.47,108.36l4.64,0.47c-0.03-7.67-0.15-49.9,0.39-52.02c0.49-1.92,1.15-2.61,3.33-4.9
			c0.51-0.54,1.11-1.17,1.83-1.93c4.08-4.37,2.93-7.85,2.48-8.81c-0.84-1.79-3.63-2.84-8.54-3.2c-2.63-0.2-4.41,0.14-5.42,1.01
			c-0.69,0.6-1.04,1.47-1.12,2.75c-0.12,1.88,0.82,4.77,1.57,7.1c0.37,1.16,0.7,2.17,0.83,2.86
			C165.81,53.62,165.52,100.51,165.47,108.36z"/>
		<path class="st0" d="M171.12,61.92c0,0-3.34,0.99-4.63,2.98c-2.86,4.37-2.04,5.95-2.04,14.28s0.55,29.36,0.55,29.36l10.56,0.59
			c0,0-0.37-19.04-0.19-23.21c0.19-4.17,1.58-7.01,3.8-8.4c2.22-1.39,4.62-4.42,4.35-8.07c-0.28-3.77-1.85-6.35-5.93-7.54
			C174.88,61.13,171.12,61.92,171.12,61.92"/>
	</g>
	<g>
		<defs>
			<path id="SVGID_5_" d="M171.12,61.92c0,0-3.34,0.99-4.63,2.97c-2.86,4.38-2.04,5.95-2.04,14.28c0,8.33,0.55,29.36,0.55,29.36
				l10.56,0.59c0,0-0.37-19.04-0.18-23.21c0.18-4.17,1.57-7.01,3.8-8.4c2.22-1.39,4.62-4.42,4.35-8.07
				c-0.28-3.77-1.86-6.35-5.93-7.54c-0.91-0.27-1.93-0.35-2.89-0.35C172.8,61.57,171.12,61.92,171.12,61.92"/>
		</defs>
		<clipPath id="SVGID_6_">
			<use xlink:href="#SVGID_5_"  style="overflow:visible;"/>
		</clipPath>
		<path class="st8" d="M167.42,69.86c0-4.6,4.02-8.33,8.99-8.33c4.96,0,8.99,3.73,8.99,8.33c0,4.6-4.03,8.33-8.99,8.33
			C171.44,78.19,167.42,74.46,167.42,69.86"/>
		<path class="st9" d="M176.4,78.83c-5.31,0-9.63-4.02-9.63-8.97c0-4.95,4.32-8.97,9.63-8.97s9.63,4.03,9.63,8.97
			C186.03,74.8,181.71,78.83,176.4,78.83z M176.4,62.17c-4.6,0-8.35,3.45-8.35,7.69c0,4.24,3.74,7.69,8.35,7.69
			c4.6,0,8.34-3.45,8.34-7.69C184.75,65.62,181.01,62.17,176.4,62.17z"/>
	</g>
	<g>
		<path d="M176.22,109.81l-11.84-0.67l-0.02-0.59c0-0.21-0.55-21.13-0.55-29.38c0-1.74-0.04-3.18-0.07-4.41
			c-0.12-4.66-0.16-6.59,2.21-10.22c1.41-2.16,4.84-3.2,4.99-3.24l0.05-0.01c0.16-0.03,3.95-0.82,6.79,0.01
			c4.04,1.18,6.07,3.75,6.39,8.11c0.28,3.8-2.13,7.09-4.65,8.66c-2.12,1.32-3.33,4.05-3.5,7.88c-0.18,4.1,0.19,22.98,0.19,23.17
			L176.22,109.81z M165.63,107.93l9.28,0.52c-0.07-3.51-0.34-18.82-0.18-22.56c0.19-4.27,1.61-7.35,4.1-8.91
			c2.19-1.37,4.29-4.21,4.05-7.48c-0.29-3.85-1.92-5.93-5.47-6.97c-2.42-0.71-5.81-0.06-6.14,0.01c-0.29,0.09-3.16,1.03-4.25,2.71
			c-2.16,3.29-2.12,4.85-2,9.48c0.03,1.24,0.07,2.7,0.07,4.44C165.1,86.63,165.54,104.46,165.63,107.93z"/>
		<path class="st4" d="M150.56,110.52c0,0,0.74-22.22,0-24.6c-0.74-2.38-5.56-3.57-7.41-5.95c-1.85-2.38-2.56-6.27,2.59-8.73
			c3.34-1.59,6.3,0.4,7.78,2.78c1.48,2.38,3.33,6.35,3.33,13.49c0,7.14-0.37,23.41-0.37,23.41L150.56,110.52z"/>
	</g>
	<g>
		<defs>
			<path id="SVGID_7_" d="M145.74,71.25c-5.16,2.45-4.45,6.35-2.59,8.73c1.85,2.38,6.67,3.57,7.41,5.95c0.74,2.38,0,24.6,0,24.6
				l5.93,0.4c0,0,0.37-16.27,0.37-23.41S155,76.4,153.52,74.03c-1.11-1.79-3.06-3.35-5.37-3.35
				C147.39,70.68,146.57,70.85,145.74,71.25"/>
		</defs>
		<clipPath id="SVGID_8_">
			<use xlink:href="#SVGID_7_"  style="overflow:visible;"/>
		</clipPath>
		<path class="st10" d="M129.99,76.6c0-6.02,3.9-10.91,8.71-10.91c4.81,0,8.71,4.88,8.71,10.91c0,6.02-3.9,10.91-8.71,10.91
			C133.89,87.51,129.99,82.63,129.99,76.6"/>
		<path class="st11" d="M138.7,88.15c-5.15,0-9.35-5.18-9.35-11.55c0-6.37,4.19-11.55,9.35-11.55s9.35,5.18,9.35,11.55
			C148.05,82.97,143.85,88.15,138.7,88.15z M138.7,66.33c-4.45,0-8.06,4.61-8.06,10.27c0,5.66,3.62,10.27,8.06,10.27
			s8.07-4.61,8.07-10.27C146.77,70.94,143.15,66.33,138.7,66.33z"/>
		<path class="st12" d="M127.21,76.6c0-6.02,3.9-10.91,8.71-10.91c4.81,0,8.71,4.88,8.71,10.91c0,6.02-3.9,10.91-8.71,10.91
			C131.11,87.51,127.21,82.63,127.21,76.6"/>
		<path class="st11" d="M135.92,88.15c-5.15,0-9.35-5.18-9.35-11.55c0-6.37,4.19-11.55,9.35-11.55s9.35,5.18,9.35,11.55
			C145.27,82.97,141.07,88.15,135.92,88.15z M135.92,66.33c-4.45,0-8.06,4.61-8.06,10.27c0,5.66,3.62,10.27,8.06,10.27
			s8.07-4.61,8.07-10.27C143.99,70.94,140.37,66.33,135.92,66.33z"/>
	</g>
	<g>
		<path d="M157.11,111.6l-7.22-0.48l0.02-0.62c0.3-8.89,0.55-22.71,0.03-24.39c-0.33-1.07-1.92-1.99-3.46-2.88
			c-1.44-0.84-2.93-1.7-3.85-2.87c-1.28-1.64-1.78-3.55-1.38-5.24c0.43-1.84,1.85-3.34,4.2-4.46c3.58-1.71,6.9,0.29,8.61,3.02
			c1.47,2.37,3.43,6.39,3.43,13.83c0,7.07-0.37,23.26-0.37,23.42L157.11,111.6z M151.22,109.92l4.64,0.31
			c0.07-3.14,0.35-16.49,0.35-22.72c0-7.11-1.85-10.91-3.24-13.15c-1.3-2.08-3.9-3.99-6.96-2.54c-1.98,0.94-3.16,2.15-3.51,3.6
			c-0.31,1.31,0.1,2.83,1.14,4.16c0.76,0.97,2.14,1.77,3.48,2.55c1.83,1.06,3.56,2.06,4.04,3.61
			C151.87,88,151.35,105.84,151.22,109.92z"/>
		<path class="st13" d="M66.24,236c0.15-1.83,0.27-3.31,1.72-3.17c0.8,0.08,1.36,1.83,1.21,3.66c-0.15,1.83-0.95,3.04-1.75,2.96
			C66.62,239.37,66.09,237.83,66.24,236"/>
		<path d="M67.49,239.79c-0.03,0-0.07,0-0.1,0c-1.01-0.09-1.65-1.73-1.48-3.81v0l0.34,0.03l-0.34-0.03c0.11-1.38,0.21-2.58,0.9-3.15
			c0.31-0.26,0.71-0.37,1.19-0.32c1.13,0.11,1.67,2.17,1.52,4.02c-0.11,1.32-0.55,2.42-1.18,2.95
			C68.07,239.68,67.78,239.79,67.49,239.79z M66.24,236l0.34,0.03c-0.15,1.85,0.41,3.04,0.87,3.08c0.14,0,0.29-0.05,0.44-0.17
			c0.38-0.32,0.83-1.14,0.94-2.48c0.15-1.85-0.44-3.25-0.91-3.29c-0.3-0.03-0.52,0.03-0.69,0.17c-0.47,0.39-0.56,1.51-0.66,2.69
			L66.24,236z"/>
		<path class="st13" d="M66.15,225.01c0-1.83,0-3.32,1.45-3.32c0.8,0,1.5,1.69,1.5,3.53c0,1.84-0.7,3.12-1.5,3.12
			C66.8,228.33,66.15,226.84,66.15,225.01"/>
		<path d="M67.61,228.67c-1.02,0-1.79-1.57-1.79-3.66c0-1.88,0-3.66,1.79-3.66c1.14,0,1.84,2.01,1.84,3.87
			C69.45,227.18,68.66,228.67,67.61,228.67z M67.61,222.02c-1.02,0-1.12,0.86-1.12,2.99c0,1.85,0.65,2.99,1.12,2.99
			c0.56,0,1.17-1.12,1.17-2.78C68.77,223.36,68.08,222.02,67.61,222.02z"/>
		<path class="st13" d="M65.38,235.75c0-1.84,0.65-3.32,1.45-3.32c0.8,0,1.45,1.49,1.45,3.32c0,1.83-0.65,3.32-1.45,3.32
			C66.03,239.07,65.38,237.59,65.38,235.75"/>
		<path d="M66.83,239.74c-1.39,0-2.12-2.01-2.12-3.99c0-1.98,0.73-3.99,2.12-3.99c1.39,0,2.12,2.01,2.12,3.99
			C68.96,237.74,68.23,239.74,66.83,239.74z M66.83,233.1c-0.19,0.04-0.78,0.9-0.78,2.66c0,1.75,0.6,2.62,0.79,2.65
			c0.19-0.04,0.78-0.9,0.78-2.65C67.62,234,67.02,233.13,66.83,233.1z"/>
		<path class="st13" d="M65.38,225.37c0-1.83,0.65-3.32,1.45-3.32c0.8,0,1.45,1.49,1.45,3.32c0,1.83-0.65,3.32-1.45,3.32
			C66.03,228.69,65.38,227.2,65.38,225.37"/>
		<path d="M66.83,229.36c-1.39,0-2.12-2.01-2.12-3.99c0-1.98,0.73-3.99,2.12-3.99c1.39,0,2.12,2.01,2.12,3.99
			C68.96,227.35,68.23,229.36,66.83,229.36z M66.83,222.71c-0.19,0.04-0.78,0.9-0.78,2.65c0,1.75,0.6,2.62,0.79,2.65
			c0.19-0.04,0.78-0.9,0.78-2.65C67.62,223.62,67.02,222.75,66.83,222.71z"/>
		<path class="st13" d="M64.41,230.77c0.18-3.13,2-2.7,4.46-2.7c2.46,0,4.46,1.21,4.46,2.7c0,1.49-2,2.7-4.46,2.7
			C66.4,233.47,64.21,234.09,64.41,230.77"/>
		<path d="M66.96,234.18c-0.98,0-1.88-0.12-2.5-0.76c-0.56-0.57-0.79-1.45-0.72-2.69l0,0c0.2-3.42,2.29-3.38,4.33-3.34l0.79,0.01
			c2.88,0,5.13,1.48,5.13,3.37c0,1.89-2.25,3.37-5.13,3.37c-0.34,0-0.67,0.01-1,0.02C67.56,234.17,67.26,234.18,66.96,234.18z
			 M65.07,230.8c-0.05,0.83,0.07,1.4,0.34,1.68c0.4,0.41,1.33,0.38,2.41,0.34c0.34-0.01,0.69-0.02,1.04-0.02
			c2.24,0,3.79-1.07,3.79-2.03c0-0.96-1.56-2.03-3.79-2.03c-0.28,0-0.56-0.01-0.82-0.01C65.96,228.68,65.2,228.67,65.07,230.8
			L65.07,230.8z"/>
		<path d="M140.74,109.56l-5.26-1c0.05-0.28,1.37-6.97,7.46-12.1c3.68-3.09,14.36-3.51,31.55-3.19c1.87,0.03,3.48,0.07,4.69,0.07
			h7.12v5.35h-7.12c-1.24,0-2.89-0.03-4.79-0.07c-6.88-0.13-25.15-0.47-28,1.93C141.81,104.4,140.75,109.51,140.74,109.56z"/>
		<rect x="179.22" y="96.84" width="5.35" height="10.8"/>
		<rect x="171.47" y="96.84" width="5.35" height="10.8"/>
		<rect x="163.71" y="96.84" width="5.35" height="10.8"/>
		<rect x="155.95" y="96.84" width="5.35" height="10.8"/>
		<rect x="148.19" y="96.84" width="5.35" height="10.8"/>
		<path class="st14" d="M139.56,109.33l-2.91-0.55c0.05-0.27,1.29-6.55,7.06-11.41c3.74-3.15,17.25-3.16,30.76-2.91
			c1.88,0.04,3.5,0.07,4.72,0.07h5.62v2.96h-5.62c-1.23,0-2.87-0.03-4.77-0.07c-8.3-0.16-25.59-0.48-28.8,2.21
			C140.69,103.78,139.57,109.27,139.56,109.33z"/>
		<rect x="180.56" y="96.84" class="st14" width="2.68" height="10.8"/>
		<rect x="172.8" y="96.84" class="st14" width="2.68" height="10.8"/>
		<rect x="165.05" y="96.84" class="st14" width="2.68" height="10.8"/>
		<rect x="157.29" y="96.84" class="st14" width="2.68" height="10.8"/>
		<rect x="149.53" y="96.84" class="st14" width="2.68" height="10.8"/>
		<rect x="50.44" y="195.68" class="st15" width="6.98" height="3.74"/>
		<path d="M58.1,200.09h-8.33V195h8.33V200.09z M51.12,198.74h5.63v-2.39h-5.63V198.74z"/>
		<rect x="50.44" y="163.7" class="st15" width="6.98" height="3.74"/>
		<path d="M58.1,168.11h-8.33v-5.09h8.33V168.11z M51.12,166.76h5.63v-2.39h-5.63V166.76z"/>
		<path class="st4" d="M103.55,243.43c7.35,2.2,9.05,10.77,13.19,13.7c4.14,2.93,8.06,2.51,28.75,2.51c20.69,0,48.79,0.7,58.52-0.85
			c18.23-2.91,20.22-3.09,37.62-7.48c13.18-3.32,14.35-22.43,14.02-39.04c-0.11-3.04-0.17-5.63-0.06-7.47
			c0.59-9.97,13.48-13.73,21.31-20.35c7.37-6.23,5.69-20.22-2.72-26.99c-5.15-4.15-11.07-3.74-26.74-3.33
			c-11.23,0.29-14.18-1.76-18.32-4.69c-4.14-2.93-19.54-0.28-26.91-5.27c-5.84-3.95-5.82-12.04-9.15-26.92
			c-1.28-5.7-0.55-10.87-14.51-10.87c-7.97,0-13.72,0.42-32.34,0.15c-5.82,0.27-9.29,0.6-10.48,1.51
			c-1.36,1.04-2.72,1.45-2.72,18.27c0,23.67-0.39,26.47-0.39,28.99c0,3.52,0.04,5.87-2.33,8.8c-2.37,2.93-39.66,2.08-43.8,2.08
			c-4.14,0-15.66-3.79-18.62-7.89c-2.96-4.1-3.88-18.27-18.23-19.1c-9.51-0.55-18.09,7.91-18.09,7.91s23.13-3.34,23.52,4.96
			c0.7,14.94,0.31,50.72-0.28,53.06c-0.59,2.34,1.06,10.48-9.02,10.48c-11.69,0-15.4-0.51-15.4-0.51s2.91,3.08,5.7,3.83
			c7.76,2.07,21.49-0.32,28.58,0.27c7.09,0.58,8.54,1.51,8.87,4.69c0.56,5.42-4.1,3.76-4.1,3.76v6.23c0,0,3.84-0.93,6.21,0.83
			c2.37,1.76-0.05,7.48,12.8,7.48C98.15,242.19,96.2,241.23,103.55,243.43"/>
	</g>
	<g>
		<defs>
			<path id="SVGID_9_" d="M146.22,106.54c-5.82,0.27-9.29,0.6-10.48,1.51c-1.36,1.04-2.71,1.45-2.71,18.27
				c0,23.67-0.39,26.47-0.39,28.99c0,3.52,0.04,5.87-2.32,8.8c-2.37,2.93-39.66,2.08-43.8,2.08s-15.66-3.79-18.62-7.89
				c-2.95-4.1-3.88-18.27-18.23-19.1c-9.51-0.55-18.09,7.91-18.09,7.91s23.13-3.34,23.52,4.97c0.7,14.94,0.31,50.72-0.28,53.06
				c-0.59,2.34,1.06,10.48-9.02,10.48c-11.7,0-15.4-0.51-15.4-0.51s2.91,3.09,5.7,3.83c4.65,1.25,11.46,0.88,17.69,0.52
				c4.16-0.24,8.06-0.49,10.89-0.25c7.09,0.58,8.54,1.52,8.87,4.69c0.56,5.42-4.1,3.76-4.1,3.76v6.23c0,0,3.84-0.93,6.21,0.83
				c2.37,1.76-0.05,7.47,12.8,7.47c9.7,0,7.75-0.95,15.09,1.25c7.35,2.2,9.05,10.77,13.19,13.7c4.14,2.93,8.06,2.51,28.74,2.51
				c20.69,0,48.79,0.7,58.53-0.85c18.23-2.91,20.21-3.09,37.62-7.48c13.19-3.32,14.35-22.42,14.02-39.04
				c-0.11-3.05-0.17-5.63-0.06-7.47c0.59-9.96,13.48-13.73,21.31-20.35c7.37-6.23,5.69-20.22-2.71-26.99
				c-5.15-4.16-11.08-3.74-26.74-3.34c-11.23,0.29-14.19-1.76-18.33-4.69c-4.14-2.93-19.54-0.28-26.91-5.27
				c-5.84-3.95-5.82-12.04-9.15-26.92c-1.28-5.7-0.54-10.87-14.51-10.87C170.58,106.39,164.83,106.81,146.22,106.54"/>
		</defs>
		<clipPath id="SVGID_10_">
			<use xlink:href="#SVGID_9_"  style="overflow:visible;"/>
		</clipPath>
		<polygon class="st16" points="121,162.45 121.39,180.31 132.25,196.92 113.25,201.07 107.04,209.8 105.49,249.66 11.24,246.34 
			29.47,125.08 94.24,143.76 		"/>
	</g>
	<g>
		<defs>
			<path id="SVGID_11_" d="M31.58,147.1c0,0,23.13-3.34,23.52,4.97c0.7,14.94,0.31,50.72-0.28,53.06
				c-0.59,2.34,1.06,10.48-9.02,10.48c-11.7,0-15.4-0.51-15.4-0.51s2.91,3.09,5.7,3.83c4.65,1.25,11.46,0.88,17.69,0.52
				c4.16-0.24,8.06-0.49,10.89-0.25c7.09,0.58,8.54,1.52,8.87,4.69c0.56,5.42-4.1,3.76-4.1,3.76v6.23c0,0,3.84-0.93,6.21,0.83
				c2.37,1.76-0.05,7.47,12.8,7.47c9.7,0,7.75-0.95,15.09,1.25c0.78,0.23,1.49,0.54,2.15,0.89l1.34-34.54l6.21-8.72l19-4.16
				l-10.86-16.61l-0.32-14.49c-12,0.8-31.63,0.37-34.56,0.37c-4.14,0-15.66-3.79-18.62-7.89c-2.95-4.1-3.88-18.27-18.23-19.1
				c-0.3-0.02-0.6-0.03-0.89-0.03C39.63,139.17,31.58,147.1,31.58,147.1"/>
		</defs>
		<clipPath id="SVGID_12_">
			<use xlink:href="#SVGID_11_"  style="overflow:visible;"/>
		</clipPath>
		<path class="st17" d="M82.02,155.39c0,0-0.39,15.78-0.39,17.86c0,2.08-0.39,7.68,1.16,9.14c1.96,1.83,7.37,1.45,7.37,1.45h12.99
			c2.33,0,4.27-0.21,5.82-1.87c1.55-1.66,0.78-11.42,0.78-11.42v-15.16H82.02z"/>
		<path class="st18" d="M88.9,184.55c-1.81,0-5-0.22-6.55-1.67c-1.42-1.34-1.47-4.95-1.39-8.54c0.01-0.42,0.02-0.78,0.02-1.08
			c0-2.06,0.37-17.23,0.39-17.87l0.02-0.65h29.05v15.83c0.13,1.63,0.71,10.09-0.96,11.88c-1.79,1.92-4.1,2.08-6.31,2.08H90.17
			C90.03,184.52,89.55,184.55,88.9,184.55z M82.68,156.06c-0.07,3-0.37,15.39-0.37,17.19c0,0.3-0.01,0.68-0.02,1.11
			c-0.05,2.11-0.14,6.5,0.97,7.54c1.43,1.34,5.45,1.38,6.86,1.27l13.04,0c2.45,0,4.03-0.26,5.33-1.66c0.93-1,0.91-6.98,0.6-10.91
			l0-14.54H82.68z"/>
	</g>
	<g>
		<defs>
			<path id="SVGID_13_" d="M146.22,106.54c-5.82,0.27-9.29,0.6-10.48,1.51c-1.36,1.04-2.71,1.45-2.71,18.27
				c0,23.67-0.39,26.47-0.39,28.99c0,3.52,0.04,5.87-2.32,8.8c-2.37,2.93-39.66,2.08-43.8,2.08s-15.66-3.79-18.62-7.89
				c-2.95-4.1-3.88-18.27-18.23-19.1c-9.51-0.55-18.09,7.91-18.09,7.91s23.13-3.34,23.52,4.97c0.7,14.94,0.31,50.72-0.28,53.06
				c-0.59,2.34,1.06,10.48-9.02,10.48c-11.7,0-15.4-0.51-15.4-0.51s2.91,3.09,5.7,3.83c4.65,1.25,11.46,0.88,17.69,0.52
				c4.16-0.24,8.06-0.49,10.89-0.25c7.09,0.58,8.54,1.52,8.87,4.69c0.56,5.42-4.1,3.76-4.1,3.76v6.23c0,0,3.84-0.93,6.21,0.83
				c2.37,1.76-0.05,7.47,12.8,7.47c9.7,0,7.75-0.95,15.09,1.25c7.35,2.2,9.05,10.77,13.19,13.7c4.14,2.93,8.06,2.51,28.74,2.51
				c20.69,0,48.79,0.7,58.53-0.85c18.23-2.91,20.21-3.09,37.62-7.48c13.19-3.32,14.35-22.42,14.02-39.04
				c-0.11-3.05-0.17-5.63-0.06-7.47c0.59-9.96,13.48-13.73,21.31-20.35c7.37-6.23,5.69-20.22-2.71-26.99
				c-5.15-4.16-11.08-3.74-26.74-3.34c-11.23,0.29-14.19-1.76-18.33-4.69c-4.14-2.93-19.54-0.28-26.91-5.27
				c-5.84-3.95-5.82-12.04-9.15-26.92c-1.28-5.7-0.54-10.87-14.51-10.87C170.58,106.39,164.83,106.81,146.22,106.54"/>
		</defs>
		<clipPath id="SVGID_14_">
			<use xlink:href="#SVGID_13_"  style="overflow:visible;"/>
		</clipPath>
		<polygon class="st19" points="120.23,156.22 121,178.65 127.21,193.6 145.05,196.92 169.87,195.26 179.96,189.45 191.59,169.51 
			251.52,167.65 259.67,139.61 181.51,74 112.47,86.46 		"/>
	</g>
	<g>
		<defs>
			<path id="SVGID_15_" d="M146.22,106.54c-5.82,0.27-9.29,0.6-10.48,1.51c-1.36,1.04-2.71,1.45-2.71,18.27
				c0,23.67-0.39,26.47-0.39,28.99c0,3.52,0.04,5.87-2.32,8.8c-0.71,0.88-4.58,1.42-9.75,1.74l0.44,12.79l6.21,14.95l17.84,3.32
				l24.82-1.66l10.08-5.82l11.63-19.93l59.93-1.87l3.98-13.71c-2.37,0.04-5.03,0.12-8.06,0.2c-11.23,0.29-14.19-1.76-18.33-4.69
				c-4.14-2.93-19.54-0.28-26.91-5.27c-5.84-3.95-5.82-12.04-9.15-26.92c-1.28-5.7-0.54-10.87-14.51-10.87
				C170.58,106.39,164.83,106.81,146.22,106.54"/>
		</defs>
		<clipPath id="SVGID_16_">
			<use xlink:href="#SVGID_15_"  style="overflow:visible;"/>
		</clipPath>
		<path class="st20" d="M218.17,158.46h-33.11c-3.81,0-6.92-3.77-6.92-8.39v-31.5c0-4.63,3.1-8.39,6.92-8.39h33.11
			c3.81,0,6.91,3.76,6.91,8.39v31.5C225.09,154.69,221.98,158.46,218.17,158.46z M185.06,111.51c-3.08,0-5.58,3.17-5.58,7.06v31.5
			c0,3.89,2.5,7.06,5.58,7.06h33.11c3.07,0,5.57-3.17,5.57-7.06v-31.5c0-3.89-2.5-7.06-5.57-7.06H185.06z"/>
	</g>
	<g>
		<defs>
			<path id="SVGID_17_" d="M146.22,106.54c-5.82,0.27-9.29,0.6-10.48,1.51c-1.36,1.04-2.71,1.45-2.71,18.27
				c0,23.67-0.39,26.47-0.39,28.99c0,3.52,0.04,5.87-2.32,8.8c-2.37,2.93-39.66,2.08-43.8,2.08s-15.66-3.79-18.62-7.89
				c-2.95-4.1-3.88-18.27-18.23-19.1c-9.51-0.55-18.09,7.91-18.09,7.91s23.13-3.34,23.52,4.97c0.7,14.94,0.31,50.72-0.28,53.06
				c-0.59,2.34,1.06,10.48-9.02,10.48c-11.7,0-15.4-0.51-15.4-0.51s2.91,3.09,5.7,3.83c4.65,1.25,11.46,0.88,17.69,0.52
				c4.16-0.24,8.06-0.49,10.89-0.25c7.09,0.58,8.54,1.52,8.87,4.69c0.56,5.42-4.1,3.76-4.1,3.76v6.23c0,0,3.84-0.93,6.21,0.83
				c2.37,1.76-0.05,7.47,12.8,7.47c9.7,0,7.75-0.95,15.09,1.25c7.35,2.2,9.05,10.77,13.19,13.7c4.14,2.93,8.06,2.51,28.74,2.51
				c20.69,0,48.79,0.7,58.53-0.85c18.23-2.91,20.21-3.09,37.62-7.48c13.19-3.32,14.35-22.42,14.02-39.04
				c-0.11-3.05-0.17-5.63-0.06-7.47c0.59-9.96,13.48-13.73,21.31-20.35c7.37-6.23,5.69-20.22-2.71-26.99
				c-5.15-4.16-11.08-3.74-26.74-3.34c-11.23,0.29-14.19-1.76-18.33-4.69c-4.14-2.93-19.54-0.28-26.91-5.27
				c-5.84-3.95-5.82-12.04-9.15-26.92c-1.28-5.7-0.54-10.87-14.51-10.87C170.58,106.39,164.83,106.81,146.22,106.54"/>
		</defs>
		<clipPath id="SVGID_18_">
			<use xlink:href="#SVGID_17_"  style="overflow:visible;"/>
		</clipPath>
		<path class="st21" d="M123.33,161.21c0,0,0,11.21,2.72,21.18c0.79,2.9,5.43,10.8,12.41,10.8h26.37c0,0,5.82,0.83,10.86-4.57
			c1.6-1.71,7.52-13.85,8.92-16.2c2.71-4.57,6.79-6.64,12.6-6.64c15.9,0,46.54-0.62,46.54-0.62s3.69,0.42,4.46-1.45
			c1.06-2.55,3.49-10.8,3.49-10.8l6.21,0.42c0,0-2.22,10.19-3.49,14.12c-1.75,5.4-6.98,4.57-22.5,4.57c-25.99,0-25.19-0.16-29.09,0
			c-5.23,0.21-12.02,0.83-14.74,6.64c-2.1,4.49-6.21,10.38-7.37,12.87c-1.16,2.49-7.37,8.31-17.84,8.31
			c-17.86,0-35.3-0.83-38.79,0.42c-3.49,1.25-13.19,0.83-14.74,11.63c-1.55,10.8-2.72,32.39-2.72,32.39s-2.33,9.36-2.33-0.42
			c0-13.7-0.28-28.52,0.78-35.3c1.94-12.46,8.53-13.7,21.33-14.95c0,0-5.74-5.46-6.59-12.46c-1.16-9.55-2.33-18.69-2.33-18.69
			L123.33,161.21z"/>
		<path class="st22" d="M105.07,249.3c-0.09,0-0.17-0.01-0.25-0.02c-1.14-0.14-1.47-1.36-1.47-5.43c0-2.39-0.01-4.81-0.02-7.21
			c-0.04-11.6-0.08-22.56,0.8-28.24c1.94-12.49,8.64-14.36,20.25-15.58c-1.83-2.15-4.89-6.43-5.51-11.56
			c-1.16-9.55-2.32-18.68-2.32-18.68l-0.12-0.89l7.88-1.69v1.21c0,0.11,0.03,11.2,2.68,20.92c0.61,2.22,4.83,10.07,11.47,10.07
			h26.37c0.36,0.04,5.54,0.67,10.14-4.26c0.97-1.04,4.11-7.09,6.18-11.09c1.15-2.21,2.14-4.12,2.62-4.93
			c2.85-4.79,7.24-7.12,13.45-7.12c15.71,0,46.22-0.62,46.52-0.62c1.05,0.11,3.21,0.03,3.58-0.85c1.03-2.47,3.43-10.62,3.46-10.7
			l0.22-0.75l8.13,0.54l-0.24,1.11c-0.09,0.42-2.25,10.29-3.52,14.21c-1.74,5.39-6.49,5.37-17.98,5.27
			c-1.66-0.01-3.47-0.03-5.44-0.03c-12.33,0-18.64-0.03-22.27-0.05c-4.04-0.02-4.76-0.03-6.78,0.05
			c-5.45,0.22-11.46,0.88-13.89,6.08c-1.22,2.63-3.08,5.64-4.71,8.3c-1.17,1.91-2.19,3.56-2.66,4.57c-1.3,2.78-7.81,8.87-18.73,8.87
			c-5.52,0-10.99-0.08-16.03-0.15c-10.82-0.16-20.18-0.29-22.43,0.51c-0.71,0.25-1.6,0.43-2.62,0.64
			c-4.35,0.88-10.31,2.09-11.48,10.2c-1.53,10.63-2.69,32.09-2.71,32.31C106.53,248.81,105.68,249.3,105.07,249.3z M118.6,163.22
			c0.32,2.52,1.27,10.02,2.21,17.8c0.8,6.56,6.24,11.81,6.3,11.87l1.55,1.48l-2.13,0.21c-12.52,1.22-18.62,2.33-20.46,14.12
			c-0.86,5.52-0.82,16.41-0.78,27.93c0.01,2.41,0.02,4.83,0.02,7.22c0,0.59,0.01,1.1,0.02,1.52c0.13-0.43,0.26-0.89,0.37-1.34
			c-0.02-0.03,1.15-21.58,2.7-32.29c1.36-9.48,8.67-10.96,13.03-11.85c0.95-0.19,1.77-0.36,2.35-0.57c2.58-0.92,11.2-0.8,23.11-0.62
			c5.03,0.07,10.5,0.15,16,0.15c10.18,0,15.99-5.67,16.95-7.74c0.52-1.11,1.56-2.81,2.76-4.77c1.61-2.62,3.43-5.58,4.61-8.11
			c3.14-6.72,11.24-7.04,15.59-7.21c2.07-0.08,2.8-0.08,6.87-0.06c3.63,0.02,9.93,0.06,22.26,0.06c1.98,0,3.8,0.01,5.46,0.03
			c11.73,0.09,14.85-0.05,16.11-3.92c0.99-3.07,2.61-10.17,3.22-12.92l-4.29-0.29c-0.63,2.11-2.41,8.01-3.3,10.14
			c-1.03,2.48-5.02,2.1-5.48,2.05c-0.17,0.01-30.7,0.63-46.43,0.63c-5.53,0-9.26,1.96-11.76,6.16c-0.45,0.76-1.43,2.65-2.56,4.83
			c-3.02,5.83-5.41,10.38-6.48,11.53c-5.33,5.71-11.46,4.9-11.71,4.87l-26.24,0.01c-7.7,0-12.55-8.57-13.36-11.52
			c-2.23-8.18-2.65-17.05-2.73-20.23L118.6,163.22z"/>
		<path class="st23" d="M241.39,266.08c0,0,0.48-34.69,0.48-39.25s0.48-16.89-1.43-20.08c-2.41-4.03-9.06-3.19-9.06-3.19h-15.96
			c-2.86,0-5.24,0.46-7.15,4.11c-1.91,3.65-0.95,25.1-0.95,25.1v33.32H241.39z"/>
		<path class="st22" d="M242.06,266.75h-35.42v-33.99c-0.1-2.18-0.91-21.71,1.03-25.41c2.15-4.13,5.01-4.47,7.75-4.47h15.96
			c0.21-0.03,7.03-0.84,9.64,3.52c1.59,2.68,1.64,10.38,1.54,18.03c-0.01,0.93-0.02,1.74-0.02,2.4c0,4.52-0.47,38.91-0.48,39.26
			L242.06,266.75z M207.99,265.4h32.73c0.07-4.84,0.47-34.42,0.47-38.58c0-0.66,0.01-1.48,0.02-2.41
			c0.06-5.16,0.18-14.75-1.35-17.32c-2.16-3.61-8.33-2.88-8.39-2.87l-16.05,0.01c-2.52,0-4.74,0.28-6.55,3.75
			c-1.49,2.86-1.14,18.84-0.88,24.76V265.4z"/>
		<path class="st23" d="M142.52,243.47c0-4.27,2.8-7.72,6.25-7.72h33.11c3.45,0,6.25,3.46,6.25,7.72v33.99
			c0,4.27-2.8,7.72-6.25,7.72h-33.11c-3.45,0-6.25-3.46-6.25-7.72V243.47z"/>
		<path class="st22" d="M181.87,285.85h-33.11c-3.81,0-6.92-3.77-6.92-8.39v-33.99c0-4.63,3.1-8.39,6.92-8.39h33.11
			c3.81,0,6.92,3.76,6.92,8.39v33.99C188.79,282.08,185.68,285.85,181.87,285.85z M148.76,236.41c-3.08,0-5.58,3.17-5.58,7.06v33.99
			c0,3.89,2.5,7.06,5.58,7.06h33.11c3.08,0,5.58-3.16,5.58-7.06v-33.99c0-3.89-2.5-7.06-5.58-7.06H148.76z"/>
	</g>
	<g>
		<path d="M177.23,260.79c-5.28,0-10.84-0.04-16.34-0.08c-5.32-0.04-10.57-0.08-15.41-0.08l-6.86,0.01
			c-15,0.03-18.56,0.05-22.45-2.7c-1.74-1.24-3.03-3.28-4.4-5.45c-2.12-3.37-4.32-6.86-8.51-8.12l0,0c-5.04-1.51-5.46-1.5-8.74-1.35
			c-1.38,0.06-3.23,0.14-6.08,0.14c-9.34,0-11.23-2.86-12.47-6.04c-0.29-0.74-0.52-1.33-0.92-1.63c-1.96-1.46-5.36-0.67-5.39-0.66
			l-1.21,0.29l0-8.86l1.31,0.47c0.4,0.14,1.59,0.39,2.23-0.12c0.64-0.5,0.66-1.7,0.56-2.62c-0.23-2.21-0.64-3.21-7.97-3.81
			c-2.68-0.22-6.39,0-10.32,0.23c-6.34,0.37-13.52,0.79-18.43-0.53c-3.03-0.81-6.03-3.97-6.16-4.11l-1.9-2.02l2.75,0.37
			c0.04,0.01,3.82,0.5,15.26,0.5c7.4,0,7.67-4.55,7.87-7.87c0.04-0.73,0.08-1.37,0.21-1.87c0.54-2.15,0.94-37.97,0.26-52.78
			c-0.04-0.91-0.44-1.66-1.22-2.31c-4.05-3.35-16.67-2.39-21.19-1.73l-2.95,0.43l2.12-2.09c0.36-0.36,9.04-8.74,18.84-8.19
			c11.54,0.67,14.88,9.51,17.1,15.36c0.66,1.75,1.24,3.27,1.87,4.15c2.68,3.73,13.91,7.48,17.82,7.48c0.48,0,1.42,0.01,2.7,0.03
			c33.08,0.41,39.47-0.92,40.35-1.75c2.1-2.6,2.1-4.64,2.1-8.01c0-0.79,0.02-1.43,0.06-2.41c0.1-2.89,0.33-8.9,0.33-26.74
			c0-16.73,1.31-17.71,2.97-18.95c1.55-1.18,4.96-1.53,11.16-1.81c12.5,0.18,19.23,0.05,24.64-0.05c2.7-0.05,5.1-0.1,7.74-0.1
			c13.26,0,14.16,4.78,15.1,9.84c0.11,0.59,0.22,1.19,0.36,1.8c0.79,3.52,1.39,6.68,1.92,9.46c1.68,8.78,2.69,14.07,6.82,16.86
			c3.94,2.67,10.47,3.03,16.22,3.36c4.65,0.26,8.67,0.49,10.7,1.92c4.07,2.89,6.76,4.8,17.73,4.51l2.54-0.07
			c13.94-0.38,19.7-0.53,24.84,3.62c4.71,3.8,7.68,10.06,7.75,16.34c0.06,5.06-1.72,9.38-5.02,12.16c-2.42,2.05-5.32,3.83-8.13,5.56
			c-6.4,3.94-12.46,7.66-12.84,14.1c-0.12,1.95-0.03,4.82,0.06,7.38c0.35,17.87-1.12,36.59-14.76,40.03
			c-16.13,4.06-19.19,4.55-33.84,6.88l-3.87,0.62C198.98,260.59,188.79,260.79,177.23,260.79z M145.48,258.67
			c4.84,0,10.09,0.04,15.42,0.08c17.49,0.13,35.57,0.26,42.95-0.91l3.87-0.62c14.59-2.32,17.62-2.8,33.67-6.84
			c12.3-3.1,13.62-20.98,13.28-38.07c-0.1-2.58-0.18-5.51-0.06-7.55c0.44-7.46,7.22-11.63,13.77-15.66
			c2.74-1.69,5.58-3.43,7.89-5.38c2.84-2.4,4.37-6.18,4.32-10.64c-0.07-5.71-2.76-11.4-7.02-14.84c-4.57-3.7-10.14-3.55-23.56-3.18
			l-2.54,0.07c-11.58,0.29-14.68-1.87-18.92-4.87c-1.57-1.11-5.51-1.33-9.68-1.57c-6.01-0.34-12.82-0.72-17.21-3.69
			c-4.8-3.24-5.87-8.84-7.64-18.12c-0.53-2.77-1.13-5.91-1.91-9.4c-0.14-0.63-0.26-1.25-0.37-1.86c-0.9-4.78-1.55-8.24-13.18-8.24
			c-2.63,0-5.02,0.05-7.71,0.1c-5.42,0.1-12.17,0.23-24.65,0.05c-2.99,0.14-8.67,0.4-9.87,1.31c-1.12,0.84-2.33,1.75-2.33,17.49
			c0,17.87-0.22,23.91-0.33,26.81c-0.04,0.94-0.06,1.57-0.06,2.18c0,3.7,0,6.26-2.54,9.42c-1.18,1.46-7.09,2.9-41.88,2.47
			c-1.27-0.02-2.2-0.03-2.68-0.03c-4.43,0-16.2-3.84-19.41-8.3c-0.79-1.09-1.4-2.72-2.11-4.6c-2.16-5.7-5.11-13.5-15.38-14.1
			c-6.02-0.35-11.8,3.22-14.93,5.59c5.24-0.47,15.36-0.87,19.47,2.53c1.21,1,1.86,2.25,1.93,3.73c0.68,14.66,0.35,50.7-0.31,53.35
			c-0.08,0.32-0.12,0.89-0.15,1.5c-0.19,3.15-0.58,9.71-9.82,9.71c-6.21,0-10.17-0.14-12.54-0.28c0.92,0.7,2.03,1.39,3.1,1.67
			c4.61,1.23,11.62,0.82,17.81,0.46c4.01-0.23,7.79-0.46,10.6-0.22c6.84,0.56,9.34,1.49,9.76,5.56c0.21,2.05-0.23,3.52-1.31,4.36
			c-0.88,0.69-1.95,0.78-2.78,0.7v3.88c1.47-0.16,3.97-0.17,5.81,1.2c0.85,0.64,1.22,1.58,1.58,2.49c0.83,2.14,1.87,4.79,10.64,4.79
			c2.81,0,4.63-0.08,5.99-0.14c3.41-0.15,4.02-0.18,9.39,1.43l0,0c4.89,1.46,7.39,5.44,9.6,8.95c1.26,2,2.44,3.88,3.87,4.89
			c3.38,2.39,6.82,2.37,21.31,2.34L145.48,258.67z"/>
		<path class="st15" d="M30.66,150.41h15.71c0,0,5.04,0.21,6.01,2.49c0.91,2.14,0.39,8.72,0.39,8.72l-0.39,39.87
			c0,0,0.39,2.49-0.78,5.4c-1.16,2.91-3.88,4.98-6.59,4.98c-2.71,0-15.13-0.42-15.13-0.42s2.33-3.32,2.72-8.72
			c0.39-5.4-3.1-10.8-3.1-10.8s3.88-4.98,3.88-10.8c0-5.81-3.49-10.8-3.49-10.8s3.1-3.74,3.88-8.31
			C34.54,157.47,30.66,150.41,30.66,150.41"/>
		<path d="M45.01,212.54c-2.69,0-14.64-0.4-15.15-0.42l-1.23-0.04l0.7-1.01c0.02-0.03,2.23-3.25,2.6-8.39
			c0.37-5.12-2.96-10.33-3-10.39l-0.26-0.4l0.29-0.37c0.04-0.05,3.74-4.88,3.74-10.39c0-5.53-3.34-10.37-3.37-10.42l-0.29-0.42
			l0.32-0.39c0.03-0.04,3-3.66,3.73-7.99c0.73-4.28-2.99-11.12-3.03-11.19l-0.54-0.99h16.84c0.59,0.02,5.52,0.3,6.63,2.9
			c0.94,2.22,0.49,8.34,0.44,9.03l-0.38,39.82c0.01,0,0.39,2.6-0.83,5.64C50.96,210.32,47.99,212.54,45.01,212.54z M31.04,210.82
			c3.12,0.1,11.79,0.38,13.98,0.38c2.44,0,4.9-1.88,5.97-4.56c1.07-2.69,0.74-5.02,0.73-5.05l0.38-39.98
			c0.14-1.83,0.36-6.82-0.33-8.45c-0.66-1.55-4.22-2.04-5.42-2.08H31.76c1.05,2.15,3.3,7.32,2.67,11.07
			c-0.66,3.88-2.89,7.13-3.72,8.23c0.85,1.34,3.34,5.72,3.34,10.77c0,5.12-2.83,9.53-3.74,10.83c0.81,1.37,3.31,6.04,2.97,10.81
			C33,206.61,31.79,209.42,31.04,210.82z"/>
		<path class="st13" d="M117.3,210.33c0-5.85,4.44-10.58,9.91-10.58c5.47,0,9.91,4.74,9.91,10.58c0,5.85-4.44,10.58-9.91,10.58
			C121.74,220.91,117.3,216.17,117.3,210.33"/>
		<path d="M127.21,221.79c-5.95,0-10.79-5.14-10.79-11.46c0-6.32,4.84-11.46,10.79-11.46S138,204.01,138,210.33
			C138,216.65,133.16,221.79,127.21,221.79z M127.21,200.62c-4.98,0-9.03,4.35-9.03,9.71s4.05,9.71,9.03,9.71s9.03-4.35,9.03-9.71
			S132.19,200.62,127.21,200.62z"/>
		<path class="st24" d="M120.18,210.33c0-4.15,3.15-7.5,7.03-7.5c3.88,0,7.03,3.36,7.03,7.5c0,4.15-3.15,7.5-7.03,7.5
			C123.33,217.83,120.18,214.47,120.18,210.33"/>
		<path d="M127.21,218.46c-4.22,0-7.66-3.65-7.66-8.14s3.44-8.14,7.66-8.14c4.22,0,7.66,3.65,7.66,8.14S131.44,218.46,127.21,218.46
			z M127.21,203.45c-3.53,0-6.4,3.08-6.4,6.87s2.87,6.87,6.4,6.87s6.4-3.08,6.4-6.87S130.74,203.45,127.21,203.45z"/>
		<path class="st13" d="M138.14,210.33c0-5.85,4.44-10.58,9.91-10.58c5.47,0,9.91,4.74,9.91,10.58c0,5.85-4.44,10.58-9.91,10.58
			C142.58,220.91,138.14,216.17,138.14,210.33"/>
		<path d="M148.05,221.79c-5.95,0-10.79-5.14-10.79-11.46c0-6.32,4.84-11.46,10.79-11.46c5.95,0,10.79,5.14,10.79,11.46
			C158.84,216.65,154,221.79,148.05,221.79z M148.05,200.62c-4.98,0-9.03,4.35-9.03,9.71s4.05,9.71,9.03,9.71
			c4.98,0,9.03-4.35,9.03-9.71S153.03,200.62,148.05,200.62z"/>
		<path class="st24" d="M141.02,210.33c0-4.15,3.15-7.5,7.03-7.5c3.88,0,7.03,3.36,7.03,7.5c0,4.15-3.15,7.5-7.03,7.5
			C144.17,217.83,141.02,214.47,141.02,210.33"/>
		<path d="M148.05,218.46c-4.22,0-7.66-3.65-7.66-8.14s3.44-8.14,7.66-8.14c4.22,0,7.66,3.65,7.66,8.14S152.27,218.46,148.05,218.46
			z M148.05,203.45c-3.53,0-6.4,3.08-6.4,6.87s2.87,6.87,6.4,6.87c3.53,0,6.4-3.08,6.4-6.87S151.57,203.45,148.05,203.45z"/>
		<path class="st13" d="M158.97,210.33c0-5.85,4.44-10.58,9.91-10.58c5.47,0,9.91,4.74,9.91,10.58c0,5.85-4.44,10.58-9.91,10.58
			C163.41,220.91,158.97,216.17,158.97,210.33"/>
		<path d="M168.89,221.79c-5.95,0-10.79-5.14-10.79-11.46c0-6.32,4.84-11.46,10.79-11.46s10.79,5.14,10.79,11.46
			C179.68,216.65,174.84,221.79,168.89,221.79z M168.89,200.62c-4.98,0-9.03,4.35-9.03,9.71s4.05,9.71,9.03,9.71
			c4.98,0,9.03-4.35,9.03-9.71S173.87,200.62,168.89,200.62z"/>
		<path class="st24" d="M161.86,210.33c0-4.15,3.15-7.5,7.03-7.5c3.88,0,7.03,3.36,7.03,7.5c0,4.15-3.15,7.5-7.03,7.5
			C165,217.83,161.86,214.47,161.86,210.33"/>
		<path d="M168.89,218.46c-4.22,0-7.66-3.65-7.66-8.14s3.44-8.14,7.66-8.14s7.66,3.65,7.66,8.14S173.11,218.46,168.89,218.46z
			 M168.89,203.45c-3.53,0-6.4,3.08-6.4,6.87s2.87,6.87,6.4,6.87s6.4-3.08,6.4-6.87S172.41,203.45,168.89,203.45z"/>
		<path class="st25" d="M174.19,149.01c-0.34-4.57-8.44-1.22-8.44-1.22l0.6,4.81C166.34,152.6,174.53,153.59,174.19,149.01"/>
		<path d="M168.1,153.32c-1.01,0-1.76-0.09-1.84-0.1l-0.49-0.06l-0.72-5.78l0.45-0.18c0.55-0.23,5.47-2.18,7.95-0.65
			c0.81,0.5,1.29,1.34,1.36,2.41l0,0c0.08,1.12-0.26,2.05-1.01,2.77C172.41,153.07,169.85,153.32,168.1,153.32z M166.91,152.01
			c1.59,0.12,4.71,0.06,6.03-1.2c0.47-0.45,0.68-1.03,0.62-1.76c-0.05-0.67-0.3-1.14-0.77-1.43c-1.48-0.92-4.76-0.02-6.36,0.57
			L166.91,152.01z"/>
		<path class="st25" d="M170.74,137.4c-1.66-4.12-8.24,2.54-8.24,2.54l2.53,5.12C165.03,145.06,172.4,141.52,170.74,137.4"/>
		<path d="M164.74,145.9l-3.01-6.09l0.32-0.32c0.47-0.47,4.63-4.56,7.41-4.02c0.59,0.12,1.4,0.51,1.88,1.69h0
			c1.86,4.62-5.71,8.32-6.03,8.47L164.74,145.9z M163.27,140.07l2.04,4.13c1.6-0.88,6.02-3.65,4.85-6.56
			c-0.28-0.71-0.68-0.86-0.95-0.92C167.71,136.43,164.91,138.5,163.27,140.07z"/>
		<path class="st25" d="M160.85,128.42c-3.47-1.79-3.78,8.91-3.78,8.91l3.6,1.44C160.67,138.77,164.33,130.21,160.85,128.42"/>
		<path d="M161.01,139.58l-4.58-1.83l0.01-0.44c0.04-1.34,0.35-8.07,2.7-9.45c0.43-0.25,1.12-0.45,2,0c3.89,2,0.51,10.22,0.11,11.16
			L161.01,139.58z M157.73,136.91l2.59,1.04c0.95-2.47,2.46-7.82,0.24-8.96l0,0c-0.4-0.2-0.62-0.13-0.78-0.04
			C158.49,129.71,157.86,134.05,157.73,136.91z"/>
		<path class="st13" d="M166.5,131.16c-2.93-2.88-6.09,7-6.09,7l3.07,2.49C163.49,140.65,169.44,134.05,166.5,131.16"/>
		<path d="M163.56,141.52l-3.87-3.14l0.13-0.41c0.23-0.74,2.38-7.24,5.08-7.9c0.51-0.13,1.28-0.11,2.05,0.65l0,0
			c3.33,3.27-2.73,10.07-2.99,10.36L163.56,141.52z M161.16,137.94l2.25,1.83c1.67-2,4.54-6.3,2.65-8.16l0,0
			c-0.39-0.38-0.66-0.38-0.86-0.32C163.76,131.65,162.02,135.4,161.16,137.94z"/>
		<path class="st13" d="M173.13,142.93c-0.79-4.48-7.96,0.83-7.96,0.83l0.85,4.36C166.02,148.13,173.92,147.42,173.13,142.93"/>
		<path d="M165.51,148.81l-1.04-5.31l0.32-0.24c0.5-0.37,4.92-3.55,7.41-2.56c0.58,0.23,1.31,0.78,1.55,2.12l0,0
			c0.19,1.1-0.04,2.1-0.71,2.97c-1.9,2.49-6.76,2.95-6.97,2.97L165.51,148.81z M165.87,144.04l0.66,3.38
			c1.26-0.19,4.28-0.8,5.51-2.4c0.44-0.58,0.59-1.23,0.46-1.98c-0.15-0.83-0.51-1.06-0.77-1.17
			C170.43,141.36,167.58,142.85,165.87,144.04z"/>
		<path class="st13" d="M173.54,154.36c0.51-3.53-7.51-1.45-7.51-1.45l0.06,3.6C166.09,156.5,172.88,158.88,173.54,154.36"/>
		<path d="M169.7,157.75c-1.9,0-3.7-0.62-3.81-0.66l-0.42-0.15l-0.08-4.54l0.48-0.13c0.59-0.15,5.81-1.45,7.65,0.2
			c0.37,0.34,0.79,0.95,0.64,1.95l0,0c-0.17,1.19-0.73,2.08-1.66,2.65C171.69,157.59,170.68,157.75,169.7,157.75z M166.72,156.03
			c1.26,0.36,3.75,0.82,5.13-0.02c0.6-0.36,0.94-0.93,1.06-1.74c0.07-0.48-0.09-0.7-0.23-0.83c-0.93-0.83-3.99-0.5-6.01-0.04
			L166.72,156.03z"/>
		<path class="st25" d="M136.7,149.01c0.33-4.57,8.45-1.22,8.45-1.22l-0.6,4.81C144.55,152.6,136.37,153.59,136.7,149.01"/>
		<path d="M142.79,153.32c-1.75,0-4.31-0.25-5.7-1.59c-0.75-0.72-1.1-1.65-1.01-2.77l0,0c0.08-1.07,0.55-1.91,1.36-2.41
			c2.48-1.53,7.4,0.42,7.95,0.65l0.45,0.18l-0.72,5.78l-0.49,0.06C144.54,153.24,143.8,153.32,142.79,153.32z M139.88,147.24
			c-0.7,0-1.32,0.11-1.78,0.39c-0.47,0.29-0.72,0.75-0.77,1.43l0,0c-0.05,0.73,0.15,1.31,0.62,1.76c1.32,1.26,4.44,1.31,6.02,1.2
			l0.48-3.81C143.35,147.8,141.44,147.24,139.88,147.24z"/>
		<path class="st25" d="M140.15,137.4c1.66-4.12,8.24,2.54,8.24,2.54l-2.53,5.12C145.87,145.06,138.49,141.52,140.15,137.4"/>
		<path d="M146.16,145.9l-0.56-0.27c-0.32-0.16-7.89-3.85-6.03-8.47l0,0c0.47-1.18,1.28-1.57,1.88-1.69c2.8-0.54,6.94,3.55,7.4,4.02
			l0.32,0.32L146.16,145.9z M140.74,137.63c-1.18,2.92,3.25,5.68,4.85,6.56l2.04-4.13c-1.64-1.57-4.41-3.66-5.93-3.35
			C141.42,136.77,141.03,136.93,140.74,137.63L140.74,137.63z"/>
		<path class="st25" d="M149.84,128.42c3.47-1.79,4.52,9.32,4.52,9.32l-4.33,1.02C150.03,138.77,146.37,130.21,149.84,128.42"/>
		<path d="M149.65,139.51l-0.21-0.49c-0.4-0.93-3.78-9.16,0.11-11.16c0.68-0.35,1.37-0.35,1.99-0.01c2.59,1.41,3.37,8.98,3.45,9.84
			l0.05,0.55L149.65,139.51z M150.58,128.86c-0.12,0-0.27,0.03-0.45,0.12l0,0c-2.24,1.15-0.67,6.61,0.27,9.04l3.26-0.77
			c-0.35-3.01-1.32-7.52-2.74-8.3C150.84,128.91,150.73,128.86,150.58,128.86z"/>
		<path class="st13" d="M144.78,131.58c2.93-2.88,6.08,6.99,6.08,6.99l-3.07,2.49C147.79,141.07,141.84,134.46,144.78,131.58"/>
		<path d="M147.72,141.94l-0.4-0.45c-0.26-0.29-6.32-7.09-2.99-10.36l0,0c0.77-0.76,1.55-0.78,2.05-0.65
			c2.7,0.67,4.84,7.16,5.08,7.9l0.13,0.41L147.72,141.94z M145.9,131.69c-0.18,0-0.4,0.07-0.68,0.35h0
			c-1.89,1.86,0.98,6.16,2.65,8.16l2.25-1.83c-0.86-2.54-2.6-6.29-4.04-6.65C146.03,131.7,145.97,131.69,145.9,131.69z"/>
		<path class="st13" d="M137.76,142.93c0.79-4.48,7.95,0.83,7.95,0.83l-0.85,4.36C144.87,148.13,136.97,147.42,137.76,142.93"/>
		<path d="M145.38,148.81l-0.57-0.05c-0.21-0.02-5.06-0.48-6.96-2.97c-0.66-0.87-0.9-1.86-0.71-2.97c0.24-1.34,0.97-1.9,1.55-2.12
			c2.49-1,6.91,2.19,7.41,2.56l0.32,0.24L145.38,148.81z M139.79,141.77c-0.24,0-0.45,0.03-0.64,0.11c-0.26,0.1-0.62,0.34-0.77,1.17
			l0,0c-0.13,0.75,0.02,1.4,0.46,1.98c1.23,1.61,4.25,2.21,5.51,2.4l0.66-3.38C143.55,143.02,141.24,141.77,139.79,141.77z"/>
		<path class="st13" d="M137.36,154.36c-0.51-3.53,7.51-1.45,7.51-1.45l-0.06,3.6C144.8,156.5,138.01,158.88,137.36,154.36"/>
		<path d="M141.2,157.75c-0.98,0-1.99-0.16-2.81-0.66c-0.93-0.56-1.49-1.45-1.66-2.65c-0.15-1.01,0.27-1.62,0.64-1.95
			c1.83-1.65,7.06-0.36,7.65-0.2l0.48,0.13l-0.08,4.54l-0.42,0.15C144.9,157.13,143.1,157.75,141.2,157.75z M140.44,152.93
			c-0.98,0-1.81,0.14-2.22,0.51c-0.15,0.13-0.31,0.34-0.23,0.83l0,0c0.12,0.81,0.46,1.38,1.06,1.74c1.39,0.84,3.88,0.38,5.13,0.02
			l0.05-2.63C143.1,153.14,141.66,152.93,140.44,152.93z"/>
		<path class="st13" d="M155.7,127.65c3.75-0.39,1.95,9.68,1.95,9.68l-3.75,0.21C153.91,137.54,151.94,128.04,155.7,127.65"/>
		<path d="M153.4,138.2l-0.11-0.53c-0.15-0.71-1.38-7,0.48-9.55c0.47-0.65,1.1-1.01,1.86-1.09l0,0c0.77-0.08,1.41,0.16,1.91,0.7
			c2.02,2.17,0.87,8.95,0.73,9.72l-0.09,0.49L153.4,138.2z M155.77,128.28c-0.4,0.04-0.71,0.23-0.97,0.58
			c-1.19,1.63-0.74,5.92-0.37,8.01l2.68-0.15c0.42-2.71,0.63-6.93-0.5-8.14C156.39,128.34,156.13,128.25,155.77,128.28
			L155.77,128.28z"/>
		<path class="st25" d="M144.15,156.22c0-10.78,1.84-19.52,11.24-19.52c9.4,0,11.24,8.74,11.24,19.52l-0.01,0.83h-22.47
			L144.15,156.22z"/>
	</g>
	<g>
		<defs>
			<path id="SVGID_19_" d="M144.15,156.22l0.01,0.83h22.46l0.01-0.83c0-10.78-1.84-19.52-11.24-19.52
				C146,136.71,144.15,145.44,144.15,156.22"/>
		</defs>
		<clipPath id="SVGID_20_">
			<use xlink:href="#SVGID_19_"  style="overflow:visible;"/>
		</clipPath>
		<path class="st26" d="M149.47,156.53c0-7.27,0.97-13.17,5.93-13.17c4.96,0,5.93,5.89,5.93,13.17l0,0.56h-11.85L149.47,156.53z"/>
	</g>
	<g>
		<defs>
			<path id="SVGID_21_" d="M149.48,156.53l0,0.52h11.85l0-0.52c0-7.28-0.97-13.17-5.93-13.17
				C150.45,143.36,149.48,149.26,149.48,156.53"/>
		</defs>
		<clipPath id="SVGID_22_">
			<use xlink:href="#SVGID_21_"  style="overflow:visible;"/>
		</clipPath>
		<path class="st27" d="M152.9,157.08c0-3.45,0.4-6.25,2.46-6.25c2.05,0,2.46,2.8,2.46,6.25l0,0.27h-4.91L152.9,157.08z"/>
		<path class="st28" d="M158.47,158h-6.22l-0.01-0.93c0-2.24,0-6.91,3.12-6.91c3.12,0,3.12,4.67,3.12,6.91L158.47,158z
			 M153.57,156.68h3.59c-0.04-3.59-0.6-5.2-1.8-5.2C154.16,151.49,153.6,153.09,153.57,156.68z"/>
	</g>
	<g>
		<defs>
			<path id="SVGID_23_" d="M144.15,156.22l0.01,0.83h22.46l0.01-0.83c0-10.78-1.84-19.52-11.24-19.52
				C146,136.71,144.15,145.44,144.15,156.22"/>
		</defs>
		<clipPath id="SVGID_24_">
			<use xlink:href="#SVGID_23_"  style="overflow:visible;"/>
		</clipPath>
		<path class="st29" d="M161.99,157.75h-13.16l-0.01-1.22c0-6.84,0.78-13.83,6.59-13.83s6.59,6.99,6.59,13.83L161.99,157.75z
			 M150.14,156.43h10.54c-0.01-8.69-1.59-12.41-5.27-12.41C151.72,144.02,150.15,147.73,150.14,156.43z"/>
	</g>
	<g>
		<path d="M167.28,157.71h-23.77l-0.02-1.49c0-9.98,1.41-20.18,11.9-20.18c10.49,0,11.91,10.2,11.91,20.18L167.28,157.71z
			 M144.82,156.39h21.16l0-0.18c0-13.21-3.17-18.85-10.59-18.85c-7.42,0-10.58,5.64-10.58,18.85L144.82,156.39z"/>
		<path class="st30" d="M261.07,162.07c0.98-4.27,2.99-4.65,7.56-3.44c4.57,1.21,7.51,4.85,6.63,7.83
			c-0.71,2.42-2.37,3.47-6.94,2.26C263.75,167.5,260.21,165.81,261.07,162.07"/>
		<path d="M271.57,169.91c-0.97,0-2.1-0.18-3.43-0.53c-2.67-0.71-8.91-2.36-7.74-7.46l0,0c0.47-2.06,1.21-3.33,2.31-4
			c1.5-0.91,3.52-0.64,6.1,0.04c2.87,0.76,5.31,2.5,6.52,4.64c0.77,1.36,0.97,2.76,0.6,4.05
			C275.27,168.86,273.92,169.91,271.57,169.91z M265.06,158.72c-0.69,0-1.22,0.13-1.64,0.38c-0.77,0.46-1.3,1.46-1.68,3.13l0,0
			c-0.62,2.7,1.34,4.39,6.76,5.83c4.78,1.27,5.64-0.19,6.1-1.79c0.27-0.92,0.11-1.95-0.48-2.98c-1.03-1.83-3.15-3.32-5.67-3.99
			C267,158.91,265.91,158.72,265.06,158.72z"/>
		<path class="st13" d="M189.64,182.64c0-5.91,4.48-10.69,10.01-10.69c5.53,0,10.01,4.79,10.01,10.69c0,5.91-4.48,10.69-10.01,10.69
			C194.13,193.33,189.64,188.55,189.64,182.64"/>
		<path d="M199.66,194.22c-6.01,0-10.9-5.2-10.9-11.58c0-6.39,4.89-11.58,10.9-11.58s10.9,5.2,10.9,11.58
			C210.55,189.02,205.66,194.22,199.66,194.22z M199.66,172.83c-5.03,0-9.12,4.4-9.12,9.81c0,5.41,4.09,9.81,9.12,9.81
			s9.12-4.4,9.12-9.81C208.78,177.23,204.68,172.83,199.66,172.83z"/>
		<path class="st24" d="M192.55,182.64c0-4.19,3.18-7.58,7.1-7.58c3.92,0,7.1,3.4,7.1,7.58c0,4.19-3.18,7.59-7.1,7.59
			C195.73,190.22,192.55,186.83,192.55,182.64"/>
		<path d="M199.66,190.86c-4.27,0-7.74-3.69-7.74-8.22c0-4.53,3.47-8.22,7.74-8.22c4.27,0,7.73,3.69,7.73,8.22
			C207.39,187.17,203.92,190.86,199.66,190.86z M199.66,175.69c-3.56,0-6.46,3.12-6.46,6.95s2.9,6.95,6.46,6.95
			c3.56,0,6.46-3.11,6.46-6.95S203.22,175.69,199.66,175.69z"/>
		<path class="st13" d="M210.69,182.64c0-5.91,4.48-10.69,10.01-10.69s10.01,4.79,10.01,10.69c0,5.91-4.48,10.69-10.01,10.69
			S210.69,188.55,210.69,182.64"/>
		<path d="M220.7,194.22c-6.01,0-10.9-5.2-10.9-11.58c0-6.39,4.89-11.58,10.9-11.58c6.01,0,10.9,5.2,10.9,11.58
			C231.6,189.02,226.71,194.22,220.7,194.22z M220.7,172.83c-5.03,0-9.12,4.4-9.12,9.81c0,5.41,4.09,9.81,9.12,9.81
			c5.03,0,9.12-4.4,9.12-9.81C229.82,177.23,225.73,172.83,220.7,172.83z"/>
		<path class="st24" d="M213.6,182.64c0-4.19,3.18-7.58,7.1-7.58c3.92,0,7.1,3.4,7.1,7.58c0,4.19-3.18,7.59-7.1,7.59
			C216.78,190.22,213.6,186.83,213.6,182.64"/>
		<path d="M220.7,190.86c-4.27,0-7.74-3.69-7.74-8.22c0-4.53,3.47-8.22,7.74-8.22c4.27,0,7.74,3.69,7.74,8.22
			C228.44,187.17,224.97,190.86,220.7,190.86z M220.7,175.69c-3.56,0-6.46,3.12-6.46,6.95s2.9,6.95,6.46,6.95
			c3.56,0,6.46-3.11,6.46-6.95S224.26,175.69,220.7,175.69z"/>
		<path class="st13" d="M231.74,182.64c0-5.91,4.48-10.69,10.01-10.69c5.53,0,10.01,4.79,10.01,10.69c0,5.91-4.48,10.69-10.01,10.69
			C236.22,193.33,231.74,188.55,231.74,182.64"/>
		<path d="M241.75,194.22c-6.01,0-10.9-5.2-10.9-11.58c0-6.39,4.89-11.58,10.9-11.58s10.9,5.2,10.9,11.58
			C252.64,189.02,247.75,194.22,241.75,194.22z M241.75,172.83c-5.03,0-9.12,4.4-9.12,9.81c0,5.41,4.09,9.81,9.12,9.81
			s9.12-4.4,9.12-9.81C250.87,177.23,246.78,172.83,241.75,172.83z"/>
		<path class="st24" d="M234.65,182.64c0-4.19,3.18-7.58,7.1-7.58c3.92,0,7.1,3.4,7.1,7.58c0,4.19-3.18,7.59-7.1,7.59
			C237.82,190.22,234.65,186.83,234.65,182.64"/>
		<path d="M241.75,190.86c-4.27,0-7.74-3.69-7.74-8.22c0-4.53,3.47-8.22,7.74-8.22s7.74,3.69,7.74,8.22
			C249.48,187.17,246.01,190.86,241.75,190.86z M241.75,175.69c-3.56,0-6.46,3.12-6.46,6.95s2.9,6.95,6.46,6.95s6.46-3.11,6.46-6.95
			S245.31,175.69,241.75,175.69z"/>
		<path class="st13" d="M170.18,69.75c0-3.03,2.52-5.48,5.63-5.48c3.11,0,5.63,2.45,5.63,5.48c0,3.03-2.52,5.48-5.63,5.48
			C172.7,75.23,170.18,72.77,170.18,69.75"/>
		<path d="M175.81,75.89c-3.47,0-6.3-2.76-6.3-6.15s2.82-6.15,6.3-6.15c3.47,0,6.3,2.76,6.3,6.15S179.28,75.89,175.81,75.89z
			 M175.81,64.94c-2.74,0-4.96,2.16-4.96,4.81s2.22,4.81,4.96,4.81c2.73,0,4.96-2.16,4.96-4.81S178.54,64.94,175.81,64.94z"/>
	</g>
</g>
</svg>
